<svg width="40" height="40" viewBox="0 0 40 40" fill="none" xmlns="http://www.w3.org/2000/svg">
<path d="M0 10C0 4.47715 4.47715 0 10 0H30C35.5228 0 40 4.47715 40 10V30C40 35.5228 35.5228 40 30 40H10C4.47715 40 0 35.5228 0 30V10Z" fill="#DCFCE7"/>
<path d="M16.6665 11.6666V15" stroke="#00A63E" stroke-width="1.66667" stroke-linecap="round" stroke-linejoin="round"/>
<path d="M23.3335 11.6666V15" stroke="#00A63E" stroke-width="1.66667" stroke-linecap="round" stroke-linejoin="round"/>
<path d="M25.8333 13.3334H14.1667C13.2462 13.3334 12.5 14.0796 12.5 15V26.6667C12.5 27.5872 13.2462 28.3334 14.1667 28.3334H25.8333C26.7538 28.3334 27.5 27.5872 27.5 26.6667V15C27.5 14.0796 26.7538 13.3334 25.8333 13.3334Z" stroke="#00A63E" stroke-width="1.66667" stroke-linecap="round" stroke-linejoin="round"/>
<path d="M12.5 18.3334H27.5" stroke="#00A63E" stroke-width="1.66667" stroke-linecap="round" stroke-linejoin="round"/>
</svg>
