<svg width="40" height="40" viewBox="0 0 40 40" fill="none" xmlns="http://www.w3.org/2000/svg">
<path d="M0 10C0 4.47715 4.47715 0 10 0H30C35.5228 0 40 4.47715 40 10V30C40 35.5228 35.5228 40 30 40H10C4.47715 40 0 35.5228 0 30V10Z" fill="#F3E8FF"/>
<path d="M23.3332 27.5V25.8333C23.3332 24.9493 22.982 24.1014 22.3569 23.4763C21.7317 22.8512 20.8839 22.5 19.9998 22.5H14.9998C14.1158 22.5 13.2679 22.8512 12.6428 23.4763C12.0177 24.1014 11.6665 24.9493 11.6665 25.8333V27.5" stroke="#9810FA" stroke-width="1.66667" stroke-linecap="round" stroke-linejoin="round"/>
<path d="M23.3335 12.6067C24.0483 12.792 24.6813 13.2094 25.1332 13.7934C25.5851 14.3774 25.8303 15.0949 25.8303 15.8334C25.8303 16.5718 25.5851 17.2893 25.1332 17.8733C24.6813 18.4573 24.0483 18.8747 23.3335 19.06" stroke="#9810FA" stroke-width="1.66667" stroke-linecap="round" stroke-linejoin="round"/>
<path d="M28.3335 27.4999V25.8333C28.3329 25.0947 28.0871 24.3773 27.6346 23.7935C27.1821 23.2098 26.5486 22.7929 25.8335 22.6083" stroke="#9810FA" stroke-width="1.66667" stroke-linecap="round" stroke-linejoin="round"/>
<path d="M17.4998 19.1667C19.3408 19.1667 20.8332 17.6743 20.8332 15.8333C20.8332 13.9924 19.3408 12.5 17.4998 12.5C15.6589 12.5 14.1665 13.9924 14.1665 15.8333C14.1665 17.6743 15.6589 19.1667 17.4998 19.1667Z" stroke="#9810FA" stroke-width="1.66667" stroke-linecap="round" stroke-linejoin="round"/>
</svg>
